<svg width="25" height="25" viewBox="0 0 25 25" fill="none" xmlns="http://www.w3.org/2000/svg">
<rect x="0.131104" y="0.373047" width="24.4442" height="24.4442" rx="3.05552" fill="#1242CA"/>
<rect x="0.513044" y="0.754987" width="23.6803" height="23.6803" rx="2.67358" stroke="black" stroke-opacity="0.07" stroke-width="0.76388"/>
<path d="M8.17302 9.95531C8.17302 10.3086 8.29081 10.5274 8.5222 10.6073C8.63999 10.641 8.81248 10.662 9.03124 10.6704C9.06911 10.6746 9.10697 10.6746 9.14904 10.6746H9.37622V12.0417C9.27525 12.0501 9.14483 12.0501 8.97655 12.0501C7.81963 12.0501 7.06658 11.6421 6.70898 10.8302C6.61643 10.5905 6.55753 10.3633 6.5407 10.1488C6.53229 10.0857 6.53229 10.0016 6.53229 9.89221V4.60049L8.17302 4.31445V9.95531Z" fill="#FAFAFA"/>
<path d="M9.88092 9.79772V6.74805H11.5427V10.0964C11.5427 10.4287 11.7026 10.6306 12.0181 10.7021C12.1527 10.7147 12.2621 10.7189 12.3378 10.7105C12.5944 10.6937 12.83 10.618 13.053 10.4834L13.0614 6.74805H14.7106V12.0271H13.3517L13.2676 11.8883C13.2591 11.8673 13.2507 11.8505 13.2423 11.8336C13.2255 11.7916 13.2129 11.7453 13.2002 11.699L12.7206 11.9052C12.5734 11.9556 12.4304 11.9977 12.2831 12.0271C12.098 12.065 11.9129 12.0902 11.7278 12.0944C11.3492 12.1155 11.0463 12.0818 10.8149 11.9935C10.5204 11.8799 10.2722 11.6696 10.0786 11.3541C9.94823 11.0807 9.88092 10.5633 9.88092 9.79772Z" fill="#FAFAFA"/>
<path d="M17.0504 9.07556H17.0588L18.5396 6.74518H20.3024L18.6785 9.30271L20.3024 12.0243H18.5396L17.0588 9.56771H17.0504V12.0243H15.418V4.6083L17.0504 4.32227V9.07556V9.07556Z" fill="#FAFAFA"/>
<path d="M8.17308 18.967C8.17308 19.3204 8.29087 19.5391 8.52226 19.619C8.64005 19.6527 8.81254 19.6737 9.0313 19.6821C9.06917 19.6863 9.10703 19.6863 9.1491 19.6863H9.37628V21.0576C9.27531 21.066 9.14489 21.066 8.97661 21.066C7.81969 21.066 7.06664 20.658 6.70904 19.8462C6.61649 19.6064 6.55759 19.3793 6.54076 19.1647C6.53235 19.1016 6.53235 19.0175 6.53235 18.9081V13.6122L8.17308 13.3262V18.967Z" fill="#FAFAFA"/>
<path d="M14.7148 17.5902V21.0773H13.2592L13.2424 21.0268C13.234 21.0016 13.2298 20.9848 13.2256 20.9763C13.2129 20.9427 13.2003 20.9006 13.1877 20.8586L13.1709 20.7282C12.6366 21.0058 12.1107 21.1446 11.6017 21.1446H11.4502C10.9243 21.1446 10.5078 20.9427 10.2007 20.5431C9.99458 20.2276 9.89362 19.8785 9.89362 19.4915V19.4494C9.89362 18.7638 10.1334 18.3095 10.6172 18.0865C10.8149 17.9561 11.3156 17.8888 12.1233 17.8888H12.9479V17.6911C12.9479 17.2957 12.889 17.0686 12.7754 17.0097C12.6492 16.9171 12.4304 16.8708 12.1149 16.8708H10.4742L10.6298 15.4238H12.3926C13.5158 15.4238 14.21 15.7015 14.4792 16.2525C14.6349 16.5722 14.7148 17.0181 14.7148 17.5902ZM12.3631 19.0372C12.0224 19.0372 11.8162 19.0708 11.7447 19.1423C11.69 19.2012 11.6606 19.3022 11.6606 19.4452C11.6606 19.7565 11.8204 19.9121 12.1402 19.9121C12.3295 19.9121 12.6029 19.8322 12.9521 19.6766V19.0372H12.3631Z" fill="#FAFAFA"/>
<path d="M17.0504 18.1146H17.0588L18.5396 15.7842H20.3024L18.6785 18.3418L20.3024 21.0633H18.5396L17.0588 18.6068H17.0504V21.0633H15.418V13.6474L17.0504 13.3613V18.1146V18.1146Z" fill="#FAFAFA"/>
<path d="M5.14731 13.6671C5.202 13.7008 5.26511 13.6798 5.29035 13.6377C5.30297 13.6209 5.30718 13.5998 5.30718 13.5788C5.30718 13.5704 5.30718 13.562 5.30718 13.5494C5.30718 12.9352 5.30718 12.3211 5.30718 11.7027C5.30718 11.6481 5.27352 11.606 5.22304 11.5934C5.1978 11.5892 5.17256 11.5934 5.15152 11.606C4.93276 11.7322 4.71399 11.8584 4.49102 11.9888C4.28067 12.1108 4.07032 12.2328 3.85997 12.3547C3.75059 12.4178 3.64121 12.4809 3.52762 12.544C3.45189 12.5861 3.45189 12.687 3.52762 12.7291C3.71273 12.8385 4.96641 13.562 5.14731 13.6671Z" fill="#FAFAFA"/>
</svg>
