<svg width="619" height="220" viewBox="0 0 619 220" fill="none" xmlns="http://www.w3.org/2000/svg">
<rect width="619" height="220" rx="30" fill="#1242CA"/>
<path d="M54.1887 126.831C54.1887 130.31 55.3285 132.47 57.6079 133.245C58.8073 133.543 60.4242 133.782 62.5844 133.848C62.9422 133.908 63.3663 133.908 63.7241 133.908H65.9439V147.339C64.9831 147.399 63.6645 147.459 62.0476 147.459C50.7695 147.459 43.3347 143.443 39.8558 135.465C38.9546 133.126 38.3582 130.906 38.1793 128.746C38.1197 128.143 38.0601 127.308 38.0601 126.228V74.2303L54.1953 71.4141V126.831H54.1887Z" fill="white"/>
<path d="M70.8674 125.274V95.2827H87.122V128.209C87.122 131.45 88.6792 133.424 91.8002 134.147C93.1189 134.266 94.199 134.325 94.9213 134.266C97.4393 134.087 99.7188 133.365 101.879 132.046L101.998 95.3423H118.134V147.22H104.821L104.039 145.842C103.92 145.663 103.86 145.484 103.801 145.305C103.622 144.888 103.502 144.464 103.383 143.987L98.7049 146.028C97.267 146.505 95.8291 146.929 94.4442 147.227C92.6418 147.585 90.846 147.83 89.0436 147.89C85.3262 148.069 82.3841 147.77 80.1046 146.869C77.2288 145.789 74.8234 143.689 72.9084 140.574C71.5234 137.871 70.8674 132.768 70.8674 125.274Z" fill="white"/>
<path d="M140.975 118.196H141.094L155.547 95.2823H172.762L156.925 120.41L172.762 147.16H155.547L141.094 123.047H140.975V147.16H125.019V74.2899L140.975 71.4736V118.196Z" fill="white"/>
<path d="M234.241 126.831C234.241 130.31 235.381 132.47 237.66 133.245C238.86 133.543 240.477 133.782 242.637 133.848C242.995 133.908 243.419 133.908 243.777 133.908H245.996V147.339C245.036 147.399 243.717 147.459 242.1 147.459C230.822 147.459 223.387 143.443 219.908 135.465C219.007 133.126 218.411 130.906 218.232 128.746C218.172 128.143 218.113 127.308 218.113 126.228V74.2303L234.248 71.4141V126.831H234.241Z" fill="white"/>
<path d="M294.276 115.254V147.16H281.023L280.904 146.683C280.844 146.445 280.785 146.325 280.785 146.206C280.665 145.908 280.546 145.544 280.427 145.126L280.308 143.927C275.45 146.445 270.653 147.704 266.034 147.704H264.656C259.859 147.704 256.081 145.842 253.259 142.184C251.397 139.308 250.442 136.068 250.442 132.529V132.171C250.442 125.876 252.662 121.735 257.042 119.694C258.845 118.495 263.397 117.892 270.779 117.892H278.273V116.155C278.273 112.557 277.737 110.457 276.716 109.92C275.576 109.078 273.535 108.661 270.66 108.661H255.724L257.162 95.4082H273.237C283.435 95.4082 289.79 97.9262 292.248 103.022C293.56 105.957 294.276 110.039 294.276 115.254ZM272.866 128.514C269.745 128.514 267.89 128.812 267.227 129.475C266.75 130.011 266.445 130.912 266.445 132.231C266.445 135.107 267.883 136.492 270.825 136.492C272.561 136.492 275.026 135.77 278.26 134.332V128.514H272.866Z" fill="white"/>
<path d="M316.587 118.196H316.707L331.159 95.2823H348.374L332.537 120.41L348.374 147.16H331.159L316.707 123.047H316.587V147.16H300.631V74.2899L316.587 71.4736V118.196Z" fill="white"/>
<path d="M198.194 131.092C198.731 131.39 199.334 131.211 199.632 130.793C199.751 130.615 199.811 130.436 199.811 130.257C199.811 130.137 199.811 130.078 199.811 129.959C199.811 123.902 199.811 117.905 199.811 111.849C199.811 111.312 199.512 110.888 198.969 110.769C198.731 110.709 198.492 110.769 198.247 110.888C196.087 112.147 193.926 113.406 191.766 114.605C189.725 115.805 187.625 117.004 185.59 118.203C184.51 118.806 183.43 119.462 182.35 120.065C181.628 120.483 181.628 121.444 182.35 121.868C184.159 122.935 196.398 130.012 198.194 131.092Z" fill="white"/>
<path d="M381.771 54.8481V165.509" stroke="white" stroke-width="1.98792" stroke-miterlimit="10"/>
<path d="M421.441 100.998C419.86 100.998 418.504 100.667 417.371 100.007C416.262 99.3226 415.472 98.3435 415 97.0694C414.528 95.7718 414.481 94.191 414.858 92.3271L416.946 81.8516H421.37L419.282 92.221C418.999 93.7545 419.141 94.9578 419.707 95.8308C420.297 96.6801 421.358 97.1048 422.892 97.1048C424.473 97.1048 425.794 96.6565 426.856 95.76C427.941 94.8634 428.661 93.495 429.014 91.6547L430.996 81.8516H435.385L431.633 100.75H427.422L428.484 95.3707L429.191 97.0694C428.295 98.4142 427.162 99.4052 425.794 100.042C424.449 100.679 422.998 100.998 421.441 100.998ZM451.475 81.6393C453.103 81.6393 454.484 81.9696 455.616 82.6302C456.749 83.2908 457.539 84.27 457.987 85.5676C458.459 86.8416 458.506 88.4106 458.129 90.2745L456.041 100.75H451.617L453.67 90.3807C453.976 88.8471 453.835 87.6556 453.245 86.8063C452.655 85.9333 451.582 85.4968 450.024 85.4968C448.396 85.4968 447.052 85.9451 445.99 86.8416C444.928 87.7382 444.209 89.1066 443.831 90.9469L441.849 100.75H437.425L441.177 81.8516H445.388L444.327 87.2309L443.619 85.5322C444.515 84.1874 445.636 83.2083 446.981 82.5948C448.349 81.9578 449.847 81.6393 451.475 81.6393ZM461.653 100.75L465.404 81.8516H469.828L466.076 100.75H461.653ZM468.624 78.7373C467.822 78.7373 467.173 78.5014 466.678 78.0295C466.206 77.534 465.97 76.9442 465.97 76.26C465.97 75.4578 466.241 74.7854 466.784 74.2427C467.35 73.7001 468.082 73.4288 468.978 73.4288C469.757 73.4288 470.394 73.6647 470.889 74.1366C471.385 74.5848 471.633 75.1393 471.633 75.7999C471.633 76.6729 471.361 77.3807 470.819 77.9233C470.276 78.466 469.545 78.7373 468.624 78.7373ZM472.449 100.75L476.483 80.6484C476.884 78.6665 477.722 77.1093 478.996 75.9769C480.27 74.8208 481.969 74.2427 484.092 74.2427C484.894 74.2427 485.661 74.3371 486.393 74.5259C487.124 74.7146 487.737 74.9977 488.233 75.3752L486.428 78.5957C485.791 78.0767 485.012 77.8171 484.092 77.8171C483.172 77.8171 482.441 78.0767 481.898 78.5957C481.355 79.1148 480.966 79.9052 480.73 80.9669L480.27 83.0903L480.058 84.8952L476.873 100.75H472.449ZM472.413 85.5322L473.121 81.9932H485.685L484.977 85.5322H472.413ZM485.048 100.75L488.799 81.8516H493.223L489.471 100.75H485.048ZM492.02 78.7373C491.217 78.7373 490.569 78.5014 490.073 78.0295C489.601 77.534 489.365 76.9442 489.365 76.26C489.365 75.4578 489.637 74.7854 490.179 74.2427C490.746 73.7001 491.477 73.4288 492.373 73.4288C493.152 73.4288 493.789 73.6647 494.285 74.1366C494.78 74.5848 495.028 75.1393 495.028 75.7999C495.028 76.6729 494.756 77.3807 494.214 77.9233C493.671 78.466 492.94 78.7373 492.02 78.7373ZM504.765 100.998C502.877 100.998 501.238 100.656 499.845 99.9714C498.453 99.2636 497.368 98.2963 496.59 97.0694C495.835 95.819 495.457 94.3562 495.457 92.681C495.457 90.534 495.929 88.6348 496.873 86.9832C497.816 85.3317 499.102 84.034 500.73 83.0903C502.382 82.123 504.257 81.6393 506.357 81.6393C508.127 81.6393 509.66 81.9696 510.958 82.6302C512.256 83.2908 513.258 84.2464 513.966 85.4968C514.698 86.7237 515.063 88.1983 515.063 89.9206C515.063 90.3689 515.04 90.8289 514.993 91.3008C514.945 91.7727 514.875 92.2092 514.78 92.6103H498.748L499.244 89.6729H512.692L510.887 90.6638C511.076 89.4605 510.993 88.4578 510.64 87.6556C510.286 86.8534 509.719 86.24 508.941 85.8153C508.162 85.3906 507.23 85.1783 506.145 85.1783C504.847 85.1783 503.715 85.485 502.747 86.0985C501.804 86.6883 501.072 87.5377 500.553 88.6465C500.034 89.7318 499.775 91.0059 499.775 92.4687C499.775 94.0023 500.211 95.1819 501.084 96.0077C501.981 96.8335 503.361 97.2464 505.225 97.2464C506.287 97.2464 507.301 97.0812 508.268 96.7509C509.236 96.397 510.038 95.9133 510.675 95.2999L512.515 98.3789C511.524 99.2518 510.345 99.9124 508.976 100.361C507.631 100.785 506.228 100.998 504.765 100.998ZM525.721 100.998C524.187 100.998 522.783 100.667 521.509 100.007C520.235 99.3462 519.233 98.4024 518.501 97.1756C517.77 95.9251 517.404 94.4269 517.404 92.681C517.404 91.0767 517.664 89.6021 518.183 88.2573C518.725 86.9124 519.48 85.7446 520.448 84.7536C521.415 83.7627 522.536 82.9959 523.81 82.4533C525.107 81.9106 526.511 81.6393 528.021 81.6393C529.578 81.6393 530.923 81.9106 532.056 82.4533C533.188 82.9959 534.061 83.8099 534.674 84.8952C535.288 85.9805 535.595 87.3253 535.595 88.9297C535.595 90.6992 535.37 92.3271 534.922 93.8135C534.474 95.2763 533.825 96.5504 532.976 97.6357C532.126 98.6974 531.088 99.5231 529.861 100.113C528.658 100.703 527.278 100.998 525.721 100.998ZM526.853 97.211C528.104 97.211 529.213 96.9161 530.18 96.3262C531.171 95.7128 531.938 94.8752 532.48 93.8135C533.046 92.7518 533.33 91.525 533.33 90.1329C533.33 88.6701 532.893 87.5141 532.02 86.6647C531.171 85.8153 529.944 85.3906 528.34 85.3906C527.113 85.3906 526.004 85.6974 525.013 86.3108C524.022 86.9006 523.243 87.7264 522.677 88.7881C522.135 89.8498 521.863 91.0767 521.863 92.4687C521.863 93.9315 522.288 95.0876 523.137 95.9369C524.01 96.7863 525.249 97.211 526.853 97.211ZM531.454 100.75L532.339 96.4324L533.507 91.407L534.108 86.3462L536.479 74.4905H540.903L535.665 100.75H531.454ZM559.479 101.104C557.78 101.104 556.294 100.856 555.02 100.361C553.769 99.8652 552.79 99.1692 552.083 98.2727C551.375 97.3525 551.021 96.279 551.021 95.0522C551.021 93.7073 551.387 92.5041 552.118 91.4424C552.849 90.3807 553.911 89.4015 555.303 88.505C556.695 87.6084 558.382 86.7473 560.364 85.9215C562.086 85.2373 563.407 84.6239 564.328 84.0812C565.248 83.5386 565.873 83.0195 566.203 82.524C566.557 82.0286 566.734 81.4859 566.734 80.8961C566.734 80.3063 566.51 79.8226 566.062 79.4451C565.613 79.044 564.976 78.8435 564.151 78.8435C563.065 78.8435 562.192 79.1266 561.532 79.6928C560.895 80.2591 560.576 81.0259 560.576 81.9932C560.576 82.5122 560.718 83.0667 561.001 83.6565C561.308 84.2228 561.815 84.9188 562.523 85.7446L573.14 98.3081L570.202 101.139L558.736 87.5495C558.005 86.7001 557.45 85.8625 557.073 85.0367C556.695 84.211 556.506 83.338 556.506 82.4179C556.506 81.0259 556.848 79.8344 557.533 78.8435C558.24 77.8289 559.184 77.0504 560.364 76.5077C561.544 75.9651 562.853 75.6937 564.292 75.6937C565.519 75.6937 566.593 75.8825 567.513 76.26C568.456 76.6375 569.188 77.1919 569.707 77.9233C570.25 78.6311 570.521 79.5041 570.521 80.5422C570.521 81.769 570.179 82.8543 569.495 83.7981C568.81 84.7182 567.819 85.5676 566.522 86.3462C565.224 87.1248 563.643 87.9034 561.779 88.6819C560.317 89.319 559.113 89.9206 558.17 90.4868C557.25 91.0531 556.565 91.6429 556.117 92.2563C555.669 92.8462 555.445 93.5304 555.445 94.309C555.445 95.2291 555.822 95.9959 556.577 96.6093C557.356 97.1992 558.465 97.4941 559.904 97.4941C561.343 97.4941 562.735 97.1638 564.08 96.5032C565.448 95.819 566.687 94.8044 567.796 93.4596C568.928 92.1148 569.884 90.4514 570.662 88.4696L574.06 89.6375C573.093 92.0912 571.877 94.1792 570.415 95.9015C568.952 97.6003 567.289 98.8979 565.425 99.7945C563.584 100.667 561.603 101.104 559.479 101.104Z" fill="white"/>
<path d="M421.441 146.117C419.86 146.117 418.504 145.787 417.371 145.126C416.262 144.442 415.472 143.463 415 142.189C414.528 140.891 414.481 139.31 414.858 137.446L416.946 126.971H421.37L419.282 137.34C418.999 138.874 419.141 140.077 419.707 140.95C420.297 141.799 421.358 142.224 422.892 142.224C424.473 142.224 425.794 141.776 426.856 140.879C427.941 139.983 428.661 138.614 429.014 136.774L430.996 126.971H435.385L431.633 145.869H427.422L428.484 140.49L429.191 142.189C428.295 143.533 427.162 144.524 425.794 145.161C424.449 145.798 422.998 146.117 421.441 146.117ZM451.475 126.758C453.103 126.758 454.484 127.089 455.616 127.749C456.749 128.41 457.539 129.389 457.987 130.687C458.459 131.961 458.506 133.53 458.129 135.394L456.041 145.869H451.617L453.67 135.5C453.976 133.966 453.835 132.775 453.245 131.925C452.655 131.052 451.582 130.616 450.024 130.616C448.396 130.616 447.052 131.064 445.99 131.961C444.928 132.857 444.209 134.226 443.831 136.066L441.849 145.869H437.425L441.177 126.971H445.388L444.327 132.35L443.619 130.651C444.515 129.307 445.636 128.327 446.981 127.714C448.349 127.077 449.847 126.758 451.475 126.758ZM461.653 145.869L465.404 126.971H469.828L466.076 145.869H461.653ZM468.624 123.856C467.822 123.856 467.173 123.62 466.678 123.149C466.206 122.653 465.97 122.063 465.97 121.379C465.97 120.577 466.241 119.905 466.784 119.362C467.35 118.819 468.082 118.548 468.978 118.548C469.757 118.548 470.394 118.784 470.889 119.256C471.385 119.704 471.633 120.258 471.633 120.919C471.633 121.792 471.361 122.5 470.819 123.042C470.276 123.585 469.545 123.856 468.624 123.856ZM476.943 145.869L472.59 126.971H476.943L480.695 143.64H478.465L488.905 126.971H493.364L481.509 145.869H476.943ZM501.309 146.117C499.421 146.117 497.781 145.775 496.389 145.091C494.997 144.383 493.912 143.415 493.134 142.189C492.379 140.938 492.001 139.475 492.001 137.8C492.001 135.653 492.473 133.754 493.417 132.102C494.36 130.451 495.646 129.153 497.274 128.209C498.926 127.242 500.801 126.758 502.901 126.758C504.671 126.758 506.204 127.089 507.502 127.749C508.8 128.41 509.802 129.366 510.51 130.616C511.242 131.843 511.607 133.317 511.607 135.04C511.607 135.488 511.584 135.948 511.536 136.42C511.489 136.892 511.418 137.328 511.324 137.729H495.292L495.788 134.792H509.236L507.431 135.783C507.62 134.58 507.537 133.577 507.183 132.775C506.83 131.973 506.263 131.359 505.485 130.934C504.706 130.51 503.774 130.297 502.689 130.297C501.391 130.297 500.259 130.604 499.291 131.218C498.348 131.807 497.616 132.657 497.097 133.766C496.578 134.851 496.319 136.125 496.319 137.588C496.319 139.121 496.755 140.301 497.628 141.127C498.525 141.953 499.905 142.366 501.769 142.366C502.83 142.366 503.845 142.2 504.812 141.87C505.78 141.516 506.582 141.032 507.219 140.419L509.059 143.498C508.068 144.371 506.889 145.032 505.52 145.48C504.175 145.905 502.771 146.117 501.309 146.117ZM513.736 145.869L517.487 126.971H521.698L520.637 132.35L520.247 130.793C521.12 129.259 522.229 128.209 523.574 127.643C524.919 127.053 526.559 126.758 528.493 126.758L527.679 130.97C527.491 130.923 527.314 130.899 527.148 130.899C526.983 130.875 526.795 130.864 526.582 130.864C524.86 130.864 523.433 131.324 522.3 132.244C521.168 133.14 520.413 134.58 520.035 136.562L518.159 145.869H513.736ZM535.038 146.117C533.386 146.117 531.841 145.916 530.402 145.515C528.962 145.114 527.854 144.63 527.075 144.064L528.915 140.667C529.694 141.209 530.661 141.658 531.817 142.012C532.997 142.342 534.224 142.507 535.498 142.507C536.961 142.507 538.034 142.307 538.718 141.905C539.426 141.504 539.78 140.95 539.78 140.242C539.78 139.723 539.532 139.334 539.037 139.074C538.541 138.815 537.904 138.602 537.126 138.437C536.371 138.272 535.545 138.095 534.648 137.906C533.775 137.718 532.95 137.458 532.171 137.128C531.416 136.797 530.791 136.314 530.295 135.677C529.8 135.04 529.552 134.19 529.552 133.129C529.552 131.784 529.93 130.64 530.685 129.696C531.44 128.752 532.49 128.032 533.834 127.537C535.203 127.018 536.772 126.758 538.541 126.758C539.815 126.758 541.066 126.9 542.293 127.183C543.52 127.466 544.534 127.867 545.336 128.386L543.708 131.784C542.859 131.241 541.939 130.864 540.948 130.651C539.981 130.439 539.037 130.333 538.117 130.333C536.677 130.333 535.604 130.557 534.896 131.005C534.212 131.43 533.87 131.973 533.87 132.633C533.87 133.152 534.118 133.553 534.613 133.836C535.109 134.12 535.734 134.356 536.489 134.544C537.267 134.709 538.093 134.886 538.966 135.075C539.863 135.24 540.688 135.488 541.443 135.818C542.222 136.149 542.859 136.632 543.354 137.269C543.85 137.883 544.098 138.709 544.098 139.747C544.098 141.115 543.708 142.283 542.93 143.25C542.175 144.194 541.113 144.914 539.745 145.409C538.376 145.881 536.807 146.117 535.038 146.117ZM555.304 146.117C553.77 146.117 552.366 145.787 551.092 145.126C549.842 144.465 548.839 143.522 548.084 142.295C547.353 141.044 546.987 139.546 546.987 137.8C546.987 136.196 547.247 134.721 547.766 133.376C548.308 132.032 549.063 130.864 550.031 129.873C550.998 128.882 552.119 128.115 553.393 127.572C554.69 127.03 556.106 126.758 557.64 126.758C559.22 126.758 560.577 127.042 561.71 127.608C562.866 128.174 563.739 129.035 564.328 130.191C564.918 131.324 565.19 132.739 565.142 134.438C565.095 136.774 564.67 138.826 563.868 140.596C563.066 142.342 561.945 143.699 560.506 144.666C559.067 145.633 557.333 146.117 555.304 146.117ZM556.436 142.33C557.71 142.33 558.831 142.035 559.798 141.445C560.766 140.832 561.533 139.994 562.099 138.933C562.665 137.871 562.948 136.644 562.948 135.252C562.948 133.789 562.512 132.633 561.639 131.784C560.766 130.934 559.539 130.51 557.958 130.51C556.708 130.51 555.587 130.817 554.596 131.43C553.629 132.02 552.862 132.846 552.296 133.907C551.729 134.969 551.446 136.196 551.446 137.588C551.446 139.051 551.883 140.207 552.756 141.056C553.629 141.905 554.856 142.33 556.436 142.33ZM561.072 145.869L561.922 141.552L563.125 136.526L563.727 131.465L564.612 126.971H569.035L565.284 145.869H561.072ZM571.072 145.869L576.31 119.61H580.733L575.496 145.869H571.072Z" fill="white"/>
</svg>
