<svg width="454" height="93" viewBox="0 0 454 93" fill="none" xmlns="http://www.w3.org/2000/svg">
<path d="M14.2403 60.6912C14.2403 63.5903 15.1901 65.3904 17.0897 66.0365C18.0892 66.285 19.4366 66.4838 21.2367 66.539C21.5349 66.5887 21.8883 66.5887 22.1865 66.5887H24.0364V77.7818C23.2357 77.8315 22.1368 77.8812 20.7894 77.8812C11.391 77.8812 5.19531 74.5349 2.29626 67.8864C1.54527 65.9371 1.04829 64.0873 0.899197 62.2871C0.849499 61.7846 0.799805 61.0888 0.799805 60.1887V16.8576L14.2459 14.5107V60.6912H14.2403Z" fill="#1242CA"/>
<path d="M28.1392 59.3939V34.4014H41.6846V61.8402C41.6846 64.5404 42.9823 66.186 45.5832 66.7879C46.682 66.8873 47.5821 66.937 48.184 66.8873C50.2824 66.7382 52.1819 66.1363 53.9821 65.0374L54.0815 34.451H67.5276V77.6828H56.4339L55.7823 76.5342C55.6829 76.3851 55.6332 76.236 55.5835 76.0869C55.4344 75.7391 55.335 75.3856 55.2356 74.9881L51.3371 76.6888C50.1388 77.0864 48.9405 77.4398 47.7864 77.6883C46.2845 77.9865 44.788 78.1908 43.286 78.2405C40.1882 78.3896 37.7364 78.1411 35.8368 77.3901C33.4403 76.49 31.4358 74.7396 29.8399 72.1442C28.6858 69.8912 28.1392 65.6393 28.1392 59.3939Z" fill="#1242CA"/>
<path d="M86.5621 53.4961H86.6615L98.705 34.4011H113.051L99.8536 55.3405L113.051 77.6328H98.705L86.6615 57.5382H86.5621V77.6328H73.2651V16.9074L86.5621 14.5605V53.4961Z" fill="#1242CA"/>
<path d="M164.284 60.6912C164.284 63.5903 165.234 65.3904 167.134 66.0365C168.133 66.285 169.481 66.4838 171.281 66.539C171.579 66.5887 171.932 66.5887 172.23 66.5887H174.08V77.7818C173.28 77.8315 172.181 77.8812 170.833 77.8812C161.435 77.8812 155.239 74.5349 152.34 67.8864C151.589 65.9371 151.092 64.0873 150.943 62.2871C150.893 61.7846 150.844 61.0888 150.844 60.1887V16.8576L164.29 14.5107V60.6912H164.284Z" fill="#1242CA"/>
<path d="M214.313 51.0442V77.6327H203.269L203.17 77.2351C203.12 77.0363 203.07 76.9369 203.07 76.8375C202.971 76.589 202.872 76.2853 202.772 75.9374L202.673 74.9379C198.625 77.0363 194.627 78.0855 190.778 78.0855H189.63C185.632 78.0855 182.484 76.5338 180.132 73.4856C178.58 71.0891 177.785 68.3888 177.785 65.4401V65.1419C177.785 59.896 179.635 56.4447 183.285 54.744C184.787 53.7445 188.581 53.242 194.732 53.242H200.978V51.7952C200.978 48.7968 200.53 47.0463 199.68 46.599C198.73 45.8977 197.029 45.5499 194.633 45.5499H182.186L183.384 34.5059H196.781C205.279 34.5059 210.575 36.6042 212.623 40.8506C213.717 43.2969 214.313 46.6984 214.313 51.0442ZM196.472 62.0937C193.871 62.0937 192.325 62.3422 191.772 62.8944C191.375 63.3417 191.121 64.0927 191.121 65.1916C191.121 67.5882 192.319 68.7423 194.771 68.7423C196.218 68.7423 198.272 68.1404 200.967 66.9421V62.0937H196.472Z" fill="#1242CA"/>
<path d="M232.906 53.4961H233.005L245.049 34.4011H259.395L246.197 55.3405L259.395 77.6328H245.049L233.005 57.5382H232.906V77.6328H219.609V16.9074L232.906 14.5605V53.4961Z" fill="#1242CA"/>
<path d="M134.244 64.2421C134.692 64.4906 135.194 64.3415 135.443 63.9936C135.542 63.8445 135.592 63.6954 135.592 63.5463C135.592 63.4469 135.592 63.3972 135.592 63.2978C135.592 58.2507 135.592 53.2533 135.592 48.2062C135.592 47.7589 135.343 47.4055 134.89 47.3061C134.692 47.2564 134.493 47.3061 134.289 47.4055C132.488 48.4547 130.688 49.5039 128.888 50.5033C127.187 51.5028 125.437 52.5023 123.742 53.5018C122.841 54.0043 121.941 54.551 121.041 55.0535C120.439 55.4014 120.439 56.2021 121.041 56.5555C122.549 57.4445 132.748 63.342 134.244 64.2421Z" fill="#1242CA"/>
<path d="M287.226 0.705566V92.923" stroke="#64718B" stroke-width="1.6566" stroke-miterlimit="10"/>
<path d="M331.933 23.8749L328.777 39.6235H325.268L325.622 37.8835C324.206 39.1812 322.427 39.83 320.284 39.83C318.554 39.83 317.167 39.3679 316.125 38.4439C315.103 37.5001 314.592 36.1828 314.592 34.492C314.592 33.8628 314.661 33.2336 314.798 32.6045L316.538 23.8749H320.225L318.485 32.516C318.406 32.9092 318.367 33.3123 318.367 33.7252C318.367 34.6492 318.622 35.357 319.134 35.8486C319.664 36.3401 320.451 36.5859 321.493 36.5859C322.83 36.5859 323.941 36.2123 324.825 35.4652C325.71 34.6984 326.3 33.558 326.595 32.0441L328.246 23.8749H331.933ZM345.312 23.6979C347.082 23.6979 348.478 24.16 349.5 25.0841C350.542 26.0081 351.063 27.3156 351.063 29.0065C351.063 29.4783 350.994 30.1075 350.857 30.894L349.117 39.6235H345.43L347.141 30.9824C347.22 30.5892 347.259 30.1861 347.259 29.7733C347.259 27.8661 346.207 26.9126 344.103 26.9126C342.747 26.9126 341.626 27.2959 340.741 28.0627C339.856 28.8099 339.257 29.9404 338.942 31.4543L337.291 39.6235H333.604L336.73 23.8749H340.24L339.886 25.6149C341.301 24.3369 343.11 23.6979 345.312 23.6979ZM356.919 23.8749H360.606L357.48 39.6235H353.793L356.919 23.8749ZM359.603 21.2796C358.954 21.2796 358.424 21.083 358.011 20.6898C357.598 20.2769 357.391 19.7854 357.391 19.2152C357.391 18.5467 357.617 17.9864 358.07 17.5341C358.542 17.0819 359.151 16.8558 359.898 16.8558C360.547 16.8558 361.078 17.0524 361.491 17.4457C361.904 17.8192 362.11 18.2813 362.11 18.8318C362.11 19.5593 361.874 20.1491 361.402 20.6013C360.95 21.0535 360.35 21.2796 359.603 21.2796ZM372.493 20.5128C371.726 20.5128 371.117 20.7291 370.665 21.1616C370.212 21.5942 369.888 22.2528 369.691 23.1376L369.514 23.9929H373.82L373.23 26.942H369.013L366.477 39.6235H362.79L365.326 26.942H362.761L363.351 23.9929H365.916L366.152 22.8722C366.506 21.1813 367.214 19.8738 368.276 18.9498C369.357 18.006 370.763 17.5341 372.493 17.5341C373.181 17.5341 373.82 17.6128 374.41 17.7701C375.019 17.9274 375.531 18.1633 375.944 18.4779L374.439 21.1616C373.909 20.7291 373.26 20.5128 372.493 20.5128ZM378.686 23.8749H382.373L379.247 39.6235H375.56L378.686 23.8749ZM381.37 21.2796C380.721 21.2796 380.19 21.083 379.777 20.6898C379.365 20.2769 379.158 19.7854 379.158 19.2152C379.158 18.5467 379.384 17.9864 379.836 17.5341C380.308 17.0819 380.918 16.8558 381.665 16.8558C382.314 16.8558 382.845 17.0524 383.258 17.4457C383.67 17.8192 383.877 18.2813 383.877 18.8318C383.877 19.5593 383.641 20.1491 383.169 20.6013C382.717 21.0535 382.117 21.2796 381.37 21.2796ZM400.578 30.599C400.578 31.3658 400.499 32.1129 400.342 32.8404H387.837C387.896 35.416 389.41 36.7038 392.379 36.7038C393.283 36.7038 394.129 36.5662 394.915 36.291C395.702 35.996 396.37 35.593 396.921 35.0818L398.454 37.6476C397.648 38.375 396.675 38.9256 395.534 39.2991C394.414 39.653 393.234 39.83 391.995 39.83C390.423 39.83 389.046 39.5449 387.867 38.9747C386.707 38.4045 385.812 37.5984 385.183 36.5564C384.554 35.4947 384.239 34.2757 384.239 32.8994C384.239 31.1495 384.622 29.5766 385.389 28.1807C386.176 26.7651 387.257 25.6641 388.633 24.8776C390.029 24.0912 391.592 23.6979 393.323 23.6979C395.525 23.6979 397.284 24.3173 398.602 25.5559C399.919 26.7749 400.578 28.456 400.578 30.599ZM393.146 26.6471C391.907 26.6471 390.845 26.9814 389.96 27.6498C389.095 28.3183 388.496 29.2326 388.161 30.3926H397.186C397.206 29.2129 396.842 28.2987 396.095 27.6498C395.367 26.9814 394.384 26.6471 393.146 26.6471ZM422.111 17.7406L417.746 39.6235H414.236L414.561 38.0015C413.145 39.2205 411.445 39.83 409.459 39.83C408.161 39.83 406.981 39.5547 405.92 39.0042C404.878 38.4537 404.052 37.6574 403.442 36.6154C402.833 35.5537 402.528 34.315 402.528 32.8994C402.528 31.1299 402.912 29.5472 403.678 28.1512C404.445 26.7553 405.497 25.6641 406.834 24.8776C408.191 24.0912 409.704 23.6979 411.376 23.6979C412.614 23.6979 413.686 23.9044 414.59 24.3173C415.514 24.7302 416.232 25.3397 416.743 26.1458L418.424 17.7406H422.111ZM410.402 36.6744C411.425 36.6744 412.349 36.4286 413.175 35.9371C414 35.4259 414.639 34.7279 415.092 33.8431C415.564 32.9387 415.799 31.9163 415.799 30.776C415.799 29.5373 415.436 28.5739 414.708 27.8858C413.981 27.178 412.958 26.8241 411.641 26.8241C410.619 26.8241 409.695 27.0797 408.869 27.5909C408.043 28.0824 407.394 28.7804 406.922 29.6848C406.47 30.5695 406.244 31.5821 406.244 32.7224C406.244 33.9611 406.608 34.9343 407.335 35.6421C408.063 36.3303 409.085 36.6744 410.402 36.6744Z" fill="#64718B"/>
<path d="M449.741 30.3631C448.975 32.3096 448.06 33.9316 446.999 35.2293L448.975 37.5886L446.527 39.9479L444.551 37.6181C442.467 39.1517 440.147 39.9185 437.591 39.9185C436.195 39.9185 434.966 39.712 433.904 39.2991C432.843 38.8862 432.017 38.3062 431.427 37.5591C430.837 36.7923 430.542 35.8977 430.542 34.8753C430.542 33.4597 431.034 32.2113 432.017 31.1299C433.019 30.0485 434.524 29.0261 436.529 28.0627C435.585 26.8241 435.113 25.5854 435.113 24.3468C435.113 23.2064 435.398 22.2135 435.969 21.3681C436.539 20.5227 437.315 19.8738 438.299 19.4216C439.282 18.9694 440.383 18.7433 441.602 18.7433C443.155 18.7433 444.403 19.107 445.347 19.8345C446.31 20.5423 446.792 21.5254 446.792 22.7837C446.792 24.0224 446.35 25.1037 445.465 26.0278C444.6 26.9519 443.263 27.8465 441.454 28.7116L445.023 32.9289C445.73 31.9458 446.36 30.7662 446.91 29.3899L449.741 30.3631ZM441.484 21.3681C440.579 21.3681 439.852 21.6139 439.301 22.1054C438.77 22.5772 438.505 23.2064 438.505 23.9929C438.505 24.3861 438.593 24.7891 438.77 25.202C438.967 25.6149 439.291 26.1064 439.744 26.6766C441.238 26.0081 442.26 25.4183 442.811 24.9071C443.361 24.3763 443.637 23.7668 443.637 23.0786C443.637 22.5871 443.44 22.184 443.047 21.8694C442.673 21.5352 442.152 21.3681 441.484 21.3681ZM437.945 36.9103C439.616 36.9103 441.179 36.3893 442.634 35.3472L438.24 30.1272C436.824 30.7956 435.802 31.4445 435.172 32.0736C434.543 32.7028 434.229 33.4302 434.229 34.256C434.229 35.0621 434.543 35.711 435.172 36.2025C435.821 36.6744 436.745 36.9103 437.945 36.9103Z" fill="#1242CA"/>
<path d="M331.933 61.474L328.777 77.2227H325.268L325.622 75.4826C324.206 76.7803 322.427 77.4291 320.284 77.4291C318.554 77.4291 317.167 76.9671 316.125 76.043C315.103 75.0992 314.592 73.7819 314.592 72.0911C314.592 71.4619 314.661 70.8328 314.798 70.2036L316.538 61.474H320.225L318.485 70.1151C318.406 70.5083 318.367 70.9114 318.367 71.3243C318.367 72.2484 318.622 72.9562 319.134 73.4477C319.664 73.9392 320.451 74.185 321.493 74.185C322.83 74.185 323.941 73.8114 324.825 73.0643C325.71 72.2975 326.3 71.1572 326.595 69.6433L328.246 61.474H331.933ZM345.312 61.2971C347.082 61.2971 348.478 61.7591 349.5 62.6832C350.542 63.6073 351.063 64.9147 351.063 66.6056C351.063 67.0775 350.994 67.7066 350.857 68.4931L349.117 77.2227H345.43L347.141 68.5815C347.22 68.1883 347.259 67.7853 347.259 67.3724C347.259 65.4652 346.207 64.5117 344.103 64.5117C342.747 64.5117 341.626 64.8951 340.741 65.6619C339.856 66.409 339.257 67.5395 338.942 69.0534L337.291 77.2227H333.604L336.73 61.474H340.24L339.886 63.214C341.301 61.9361 343.11 61.2971 345.312 61.2971ZM356.919 61.474H360.606L357.48 77.2227H353.793L356.919 61.474ZM359.603 58.8787C358.954 58.8787 358.424 58.6821 358.011 58.2889C357.598 57.876 357.391 57.3845 357.391 56.8143C357.391 56.1458 357.617 55.5855 358.07 55.1333C358.542 54.6811 359.151 54.455 359.898 54.455C360.547 54.455 361.078 54.6516 361.491 55.0448C361.904 55.4184 362.11 55.8804 362.11 56.4309C362.11 57.1584 361.874 57.7482 361.402 58.2004C360.95 58.6526 360.35 58.8787 359.603 58.8787ZM380.22 61.474L370.34 77.2227H366.536L362.908 61.474H366.536L369.16 73.1823L376.504 61.474H380.22ZM395.422 68.1982C395.422 68.9649 395.344 69.7121 395.186 70.4395H382.682C382.741 73.0152 384.255 74.303 387.223 74.303C388.128 74.303 388.973 74.1653 389.76 73.8901C390.546 73.5952 391.215 73.1921 391.765 72.6809L393.299 75.2467C392.493 75.9742 391.519 76.5247 390.379 76.8982C389.258 77.2521 388.079 77.4291 386.84 77.4291C385.267 77.4291 383.891 77.144 382.711 76.5738C381.551 76.0037 380.657 75.1975 380.027 74.1555C379.398 73.0938 379.084 71.8748 379.084 70.4985C379.084 68.7487 379.467 67.1758 380.234 65.7798C381.02 64.3642 382.102 63.2632 383.478 62.4767C384.874 61.6903 386.437 61.2971 388.167 61.2971C390.369 61.2971 392.129 61.9164 393.446 63.155C394.764 64.374 395.422 66.0551 395.422 68.1982ZM387.99 64.2462C386.752 64.2462 385.69 64.5805 384.805 65.249C383.94 65.9175 383.34 66.8317 383.006 67.9917H392.031C392.05 66.812 391.687 65.8978 390.939 65.249C390.212 64.5805 389.229 64.2462 387.99 64.2462ZM403.419 63.5089C404.107 62.7028 404.942 62.1327 405.925 61.7984C406.928 61.4642 408.118 61.2971 409.494 61.2971L408.816 64.8066C408.481 64.7476 408.177 64.7181 407.901 64.7181C404.893 64.7181 403.075 66.3008 402.445 69.4663L400.882 77.2227H397.196L400.322 61.474H403.832L403.419 63.5089ZM414.861 77.4291C413.524 77.4291 412.246 77.2718 411.027 76.9572C409.828 76.623 408.894 76.2101 408.226 75.7186L409.759 72.8874C410.408 73.3592 411.224 73.7328 412.207 74.008C413.19 74.2833 414.203 74.4209 415.245 74.4209C416.424 74.4209 417.309 74.2636 417.899 73.9491C418.508 73.6148 418.813 73.143 418.813 72.5335C418.813 72.0616 418.558 71.7175 418.046 71.5012C417.555 71.285 416.768 71.0589 415.687 70.8229C414.566 70.6067 413.642 70.3805 412.915 70.1446C412.207 69.889 411.588 69.486 411.057 68.9354C410.546 68.3653 410.29 67.5887 410.29 66.6056C410.29 64.9737 410.968 63.6859 412.325 62.7422C413.701 61.7788 415.52 61.2971 417.781 61.2971C418.862 61.2971 419.914 61.4249 420.937 61.6805C421.959 61.9164 422.795 62.2408 423.443 62.6537L422.087 65.4849C421.438 65.072 420.701 64.7673 419.875 64.5707C419.069 64.374 418.253 64.2757 417.427 64.2757C416.267 64.2757 415.382 64.4527 414.773 64.8066C414.183 65.1605 413.888 65.6225 413.888 66.1927C413.888 66.7039 414.144 67.0775 414.655 67.3134C415.186 67.5297 416.002 67.7558 417.103 67.9917C418.204 68.208 419.108 68.4439 419.816 68.6995C420.524 68.9354 421.133 69.3287 421.644 69.8792C422.156 70.4297 422.411 71.1768 422.411 72.1206C422.411 73.8114 421.723 75.1189 420.347 76.043C418.97 76.9671 417.142 77.4291 414.861 77.4291ZM443.193 61.474L440.066 77.2227H436.557L436.881 75.6006C435.505 76.8196 433.794 77.4291 431.75 77.4291C430.452 77.4291 429.272 77.1538 428.211 76.6033C427.169 76.0528 426.343 75.2565 425.733 74.2145C425.124 73.1528 424.819 71.9141 424.819 70.4985C424.819 68.7487 425.203 67.1758 425.969 65.7798C426.756 64.3642 427.817 63.2632 429.154 62.4767C430.511 61.6903 432.025 61.2971 433.696 61.2971C436.213 61.2971 438.002 62.1327 439.064 63.8039L439.506 61.474H443.193ZM432.693 74.2735C433.736 74.2735 434.66 74.0277 435.466 73.5362C436.291 73.025 436.94 72.327 437.412 71.4423C437.884 70.5378 438.12 69.5155 438.12 68.3751C438.12 67.1364 437.756 66.173 437.029 65.4849C436.301 64.7771 435.279 64.4232 433.962 64.4232C432.92 64.4232 431.986 64.6788 431.16 65.19C430.354 65.6815 429.715 66.3795 429.243 67.2839C428.771 68.1687 428.535 69.1812 428.535 70.3216C428.535 71.5602 428.899 72.5335 429.626 73.2413C430.354 73.9294 431.376 74.2735 432.693 74.2735ZM449.255 55.3397H452.941L448.576 77.2227H444.89L449.255 55.3397Z" fill="#64718B"/>
</svg>
